<?xml version="1.0" encoding="UTF-8"?>
<svg id="Calque_1" data-name="Calque 1" xmlns="http://www.w3.org/2000/svg" viewBox="0 0 3683.01 383.16">
  <defs>
    <style>
      .cls-1 {
        fill: #fff;
        stroke: #000;
        stroke-miterlimit: 10;
      }
    </style>
  </defs>
  <path class="cls-1" d="M196.87,209.35S13.17,170.84,6.06,166.09s-7.7,29.04,0,34.96-2.96,17.78,0,20.15,7.7,9.48,9.48,10.67,7.11,17.78,7.11,20.15,13.04,9.48,13.04,9.48c0,0,26.67,20.15,27.85,24.89s81.78,34.37,133.33,35.56,77.04,3.56,81.78,7.11,27.26,0,27.26,0c0,0,7.7-3.56,13.63-2.37s37.93,5.53,44.44,3.95,30.22,8.49,34.37,7.9,23.7-2.96,24.3-6.52,6.52-6.52,8.89-6.52-2.37,11.31,7.11,13.06,42.67.62,42.67,0,2.37-9.51,2.37-9.51l13.04-.59s-1.78,17.78,6.52,16,36.15.12,36.15.12c0,0,8.3-.12,7.11-10.79s14.22-1.78,14.22-1.78c0,0-.59,13.29,14.81,12.57s33.78.03,33.78.03c0,0,5.93-5.49,4.74-10.82s10.67-.59,10.67-.59c0,0-2.96,16,22.52,16s27.26-1.78,28.44-12.44,15.41-1.78,15.41-1.78c0,0-4.74,16,13.63,14.22s37.33,3.83,37.93.14,0-12.58,0-12.58l13.04.59s.59,14.11,18.96,13.28,24.89,6.87,34.37-10.31,13.04-1.19,13.04-1.19c0,0-2.37,11.99,11.26,12.52s39.11,1.11,39.11-10.15,18.96-2.96,18.96-2.96c0,0,1.19,15.41,26.07,13.34s21.33-13.93,21.33-13.93l16.59.59s-.59,14.61,21.33,13.53,27.26-2.27,28.44-12.94,18.37-1.78,18.37-1.78c0,0-4.74,15.32,23.7,14.77s23.11-16.55,23.11-16.55l16-.59s-2.96,20.68,24.89,17.16,21.93-8.86,24.3-15.97,15.41-1.19,15.41-1.19c0,0,4.15,18.53,24.3,17.56s27.85-1.56,27.26-16.38,13.63,1.19,13.63,1.19c0,0,6.52,13.86,26.67,15.23s27.26-13.45,23.7-15.23,16-1.78,16-1.78c0,0-1.78,17.59,22.52,17.09s27.26.68,26.07-12.35,15.41,0,15.41,0c0,0-1.19,15.25,25.48,12.36s25.48,1.27,26.07-11.77,13.63,1.19,13.63,1.19c0,0-4.15,12.41,24.89,10.95s23.7,2.68,23.11-7.39,16.59-1.19,16.59-1.19c0,0,3.56,14.22,23.7,14.22s26.67.59,26.07-11.85,16.59,0,16.59,0c0,0-1.19,12.45,29.63,11.86s20.15-.6,19.56-7.71,14.81-1.19,14.81-1.19c0,0-1.19,17.19,24.3,14.22s20.15,4.15,29.63-8.3,16-4.74,16-4.74c0,0-5.93,17.87,22.52,13.38s24.89.72,24.89.72c0,0-.9-5.22.14-10.55s13.49-4.74,13.49-4.74c0,0,1.78,13.99,10.67,15.29s37.93,0,37.93,0c0,0,3.56-9.96,3.56-11.73s9.48,0,9.48,0c0,0,1.19,11,10.67,12.31s43.85,7.83,44.44,4.28-7.11-8.3,2.96-8.89,2.96-1.19,14.81,4.15,42.07,5.79,42.07,5.79c0,0,8.3-6.38,8.3-10.53s13.63-1.78,13.63-1.78c0,0,3.56,12.17,18.37,12.31s32,5.79,32,0,10.07-9.34,10.07-9.34c0,0,5.33,12.64,23.11,11.95s33.78,5.83,34.37-7.21,13.04,0,13.04,0c0,0,2.37,16,18.37,14.22s26.07.14,26.07.14c0,0,10.07-13.77,8.3-17.32s15.41-2.96,15.41,3.56,13.04,15.09,27.26,13.77,24.3-1.92,23.7-11.4,14.81-4.15,14.81-4.15c0,0-5.93,15.96,16.59,15.68s32.59,5.06,33.78-12.13,16.59,0,16.59,0c0,0,2.96,11.77,17.78,12.7s36.15,4.49,35.56-10.92,13.63,1.19,13.63,1.19c0,0-.59,10.25,24.3,10.75s27.26-4.24,26.07-11.94,21.33-.59,21.33-.59c0,0-8.89,13.29,17.78,12.57s26.67-5.46,27.85-12.57,18.37-1.78,18.37-1.78c0,0,1.78,15.71,21.33,14.38s27.26-1.93,27.26-14.38,15.41-.59,15.41-.59c0,0,1.78,15.87,23.7,15.05s29.63-9.12,27.85-13.86,11.85-4.15,11.85-4.15c0,0-8.89,11.85,7.11,11.85s39.7,5.93,43.26,1.19,4.15-13.63,10.67-13.04,4.74,7.11,18.37,9.48,42.67,8.89,43.85-9.48,7.11,5.33,11.26,6.52,43.26,8.89,45.63,5.33,2.96-14.81,6.52-14.81,4.74,8.3,17.19,10.07,29.04,4.15,34.96,3.56,5.93-5.33,9.48-8.3,6.52-3.56,9.48-3.56,1.78,5.93,10.07,5.93,30.81,2.37,34.96,1.19,7.11,1.78,9.48-3.56,7.7-2.37,11.26-2.37,18.96,2.37,30.81,1.78,16,2.96,18.96-2.96,2.96-5.33,5.93-5.33,5.33,3.56,8.89,4.74,20.74,2.96,28.44,2.37,13.63,1.19,16.59-3.56,6.52-6.52,5.33-9.48,8.89,10.67,16,8.89,34.96,5.93,44.44-10.07c0,0,9.48,5.33,14.22,5.33s40.3-1.19,42.67-7.7-16.59,2.37,15.41,2.96,45.04-7.7,45.04-7.7c0,0,11.85,10.67,21.33,7.11s23.7-9.48,28.44-9.48,36.74-1.19,40.89-4.74,7.11,8.89,40.3-8.3c0,0,18.96,1.19,28.44-4.74s12.44,8.89,34.37-7.11l17.78-1.78,8.89-4.15,5.33.59,13.04-5.33h10.07l10.67-7.11,17.78-2.37,10.67-11.26,21.93-4.15,16.59-11.85h10.07l11.26-8.3,11.26-1.78,6.52-8.89,7.7-.59,5.33-10.67,13.63-4.74,37.33-42.67v-4.74l5.93-2.96,13.04-18.23v-9.62l15.41-29.04v-21.93l4.15-24.89-17.19-78.81s-47.93,81.44-247.7,190.65c-37.79,20.66-49.19,25.65-103.7,38.68,0,0-65.78,22.52-402.96,39.11s-865.33,29.04-1381.93-11.26c-77.76-6.07-493.68-16.1-839.41-13.04-301.33,2.67-492.74-36.15-492.74-36.15Z"/>
</svg>